<?xml version="1.0" encoding="UTF-8" standalone="no"?>
<svg
   xmlns:dc="http://purl.org/dc/elements/1.1/"
   xmlns:cc="http://creativecommons.org/ns#"
   xmlns:rdf="http://www.w3.org/1999/02/22-rdf-syntax-ns#"
   xmlns:svg="http://www.w3.org/2000/svg"
   xmlns="http://www.w3.org/2000/svg"
   xmlns:sodipodi="http://sodipodi.sourceforge.net/DTD/sodipodi-0.dtd"
   xmlns:inkscape="http://www.inkscape.org/namespaces/inkscape"
   version="1.1"
   id="Capa_1"
   x="0px"
   y="0px"
   viewBox="0 0 512.171 512.171"
   style="enable-background:new 0 0 512.171 512.171;"
   xml:space="preserve"
   sodipodi:docname="up-arrow.svg"
   inkscape:version="1.0.2-2 (e86c870879, 2021-01-15)"><metadata
   id="metadata43"><rdf:RDF><cc:Work
       rdf:about=""><dc:format>image/svg+xml</dc:format><dc:type
         rdf:resource="http://purl.org/dc/dcmitype/StillImage" /></cc:Work></rdf:RDF></metadata><defs
   id="defs41" /><sodipodi:namedview
   pagecolor="#ffffff"
   bordercolor="#666666"
   borderopacity="1"
   objecttolerance="10"
   gridtolerance="10"
   guidetolerance="10"
   inkscape:pageopacity="0"
   inkscape:pageshadow="2"
   inkscape:window-width="1920"
   inkscape:window-height="1017"
   id="namedview39"
   showgrid="false"
   inkscape:zoom="1.6596019"
   inkscape:cx="256.08551"
   inkscape:cy="159.67685"
   inkscape:window-x="-8"
   inkscape:window-y="-8"
   inkscape:window-maximized="1"
   inkscape:current-layer="Capa_1" />
<g
   id="g6">
	<g
   id="g4">
		<path
   d="M476.723,216.64L263.305,3.115C261.299,1.109,258.59,0,255.753,0c-2.837,0-5.547,1.131-7.552,3.136L35.422,216.64    c-3.051,3.051-3.947,7.637-2.304,11.627c1.664,3.989,5.547,6.571,9.856,6.571h117.333v266.667c0,5.888,4.779,10.667,10.667,10.667    h170.667c5.888,0,10.667-4.779,10.667-10.667V234.837h116.885c4.309,0,8.192-2.603,9.856-6.592    C480.713,224.256,479.774,219.691,476.723,216.64z"
   id="path2" />
	</g>
</g>
<g
   id="g8">
</g>
<g
   id="g10">
</g>
<g
   id="g12">
</g>
<g
   id="g14">
</g>
<g
   id="g16">
</g>
<g
   id="g18">
</g>
<g
   id="g20">
</g>
<g
   id="g22">
</g>
<g
   id="g24">
</g>
<g
   id="g26">
</g>
<g
   id="g28">
</g>
<g
   id="g30">
</g>
<g
   id="g32">
</g>
<g
   id="g34">
</g>
<g
   id="g36">
</g>
<path
   style="fill:#000080;stroke-width:0.602554"
   d="m 169.12805,511.58768 c -2.76481,-0.53495 -5.06108,-2.14577 -6.89035,-4.83352 l -1.35574,-1.99201 V 369.57786 234.39356 h -59.9735 c -65.976561,0 -62.251662,0.21527 -65.778362,-3.80142 -2.574768,-2.9325 -3.127205,-6.56506 -1.543043,-10.14633 C 34.490458,218.40352 58.925644,193.57489 142.21436,110.06944 201.3183,50.811699 250.47055,1.9172514 251.44158,1.415111 c 2.26502,-1.17128512 6.43481,-1.17033881 8.64399,0.00196 0.94831,0.5032193 50.43475,49.671637 109.96986,109.263149 87.58569,87.66867 108.38247,108.78186 108.96251,110.62028 0.99042,3.13912 0.28799,6.45884 -1.93808,9.15946 -3.43204,4.16366 0.39971,3.9336 -65.51603,3.9336 h -59.67221 v 134.69486 c 0,132.87056 -0.0161,134.7264 -1.1883,137.02411 -1.57867,3.09445 -3.64735,4.62756 -7.30157,5.41125 -3.47555,0.74537 -170.43526,0.80659 -174.2737,0.0639 z"
   id="path45" /><path
   style="fill:#000080;stroke-width:0.602554"
   d="m 167.02277,510.55853 c -1.09651,-0.54038 -2.92677,-2.12124 -4.06724,-3.51303 l -2.07357,-2.53052 V 369.45427 234.39356 l -38.71411,-0.0634 C 100.8751,234.29538 73.508563,234.092 61.353335,233.87829 40.193609,233.50627 39.180543,233.43608 37.552447,232.22922 33.314689,229.0879 31.939759,224.01766 34.283421,220.17427 35.990057,217.37553 100.67548,151.95083 180.55189,72.23413 242.26761,10.641802 251.84792,1.3110591 253.71662,0.97530335 259.00597,0.02495447 253.08742,-5.5305311 352.10603,93.329231 402.76318,143.90513 452.04458,193.36557 461.62024,203.24133 l 17.4103,17.95594 v 2.89371 c 0,3.20604 -1.50626,5.98439 -4.41209,8.13824 -1.62375,1.20354 -2.6586,1.27821 -22.89706,1.65224 -11.65805,0.21546 -38.84996,0.41882 -60.42646,0.45192 l -39.23,0.0602 -0.3459,134.21894 c -0.24445,94.85552 -0.54011,134.87026 -1.00811,136.43978 -0.78853,2.64444 -3.42916,5.02855 -6.52058,5.88711 -1.49435,0.41503 -31.04606,0.61891 -88.70738,0.61199 -78.70621,-0.009 -86.64545,-0.0985 -88.46019,-0.99285 z"
   id="path47" /><path
   style="fill:#00ffff;stroke-width:0.602554"
   d=""
   id="path49" /><path
   style="fill:#00ffff;stroke-width:0.602554"
   d="m 167.17039,510.71733 c -1.01533,-0.44217 -2.84559,-1.97169 -4.06724,-3.39892 l -2.22119,-2.59496 V 369.55851 234.39356 l -39.01538,-0.0623 c -21.45846,-0.0343 -48.82498,-0.23764 -60.814483,-0.45192 -20.852679,-0.37268 -21.872926,-0.44431 -23.499611,-1.6501 -4.237142,-3.1408 -5.612753,-8.21152 -3.26994,-12.05352 C 36.05511,217.26886 94.546493,158.08986 176.63792,76.146822 241.86972,11.032945 251.84463,1.3043442 253.71662,0.97139772 259.01319,0.02937181 252.92876,-5.6899421 354.2138,95.437852 406.03023,147.17384 455.31163,196.63018 463.72802,205.34084 l 15.30252,15.83756 v 2.90315 c 0,3.21608 -1.5028,5.99126 -4.41209,8.14767 -1.62375,1.20354 -2.6586,1.27821 -22.89706,1.65224 -11.65805,0.21546 -38.85087,0.41882 -60.42849,0.45192 l -39.23204,0.0602 -0.34002,134.21894 c -0.24159,95.35747 -0.53288,134.86195 -1.00609,136.43978 -0.79347,2.64569 -3.43485,5.02906 -6.52441,5.88711 -1.49513,0.41524 -31.01605,0.61563 -88.70738,0.60213 -70.72716,-0.0166 -86.80256,-0.16657 -88.31257,-0.82419 z"
   id="path51" /><path
   style="fill:#00ffff;stroke-width:0.602554"
   d="m 167.17039,510.11478 c -1.01533,-0.44218 -2.84559,-1.97169 -4.06724,-3.39892 l -2.22119,-2.59496 V 369.25723 c 0,-74.17502 -0.0678,-134.8916 -0.15064,-134.92573 -0.0829,-0.0341 -27.00464,-0.25544 -59.82618,-0.49179 -57.297027,-0.41262 -59.770384,-0.47619 -62.055125,-1.59497 -4.643717,-2.27392 -6.51549,-7.9108 -3.988419,-12.0112 0.612733,-0.99422 9.874466,-10.75559 20.58163,-21.69195 C 85.314794,168.0306 218.15329,35.049786 236.67032,17.120326 255.59374,-1.2026164 254.74148,-0.72226062 260.39992,3.7456836 266.8994,8.87772 292.18622,33.856063 384.64705,126.47708 l 94.51722,94.68098 -0.42646,2.84385 c -0.70366,4.69233 -2.44579,7.1815 -6.03519,8.62314 -1.34136,0.53875 -17.04435,0.82734 -60.98163,1.12075 -32.54629,0.21734 -59.31983,0.53993 -59.49676,0.71686 -0.17693,0.17692 -0.55817,60.95038 -0.8472,135.05212 -0.51414,131.81545 -0.55084,134.7738 -1.69606,136.7347 -0.64381,1.10235 -2.24004,2.61004 -3.5472,3.35044 l -2.37663,1.34617 -87.37035,-0.0137 c -71.4917,-0.0112 -87.70586,-0.15979 -89.2164,-0.81764 z"
   id="path53" /><path
   style="fill:#00ffff;stroke-width:0.602554"
   d=""
   id="path55" /><path
   style="fill:#00ffff;stroke-width:0.602554"
   d=""
   id="path57" /></svg>
